Coordinates
version=1
nRows=17
nColumns=24
inDegrees=yes

Units are S.I. units (second, meters, Newtons, ...)
Angles are in degrees.

endheader
time	pelvis_tilt	pelvis_list	pelvis_rotation	pelvis_tx	pelvis_ty	pelvis_tz	hip_flexion_r	hip_adduction_r	hip_rotation_r	knee_angle_r	ankle_angle_r	subtalar_angle_r	mtp_angle_r	hip_flexion_l	hip_adduction_l	hip_rotation_l	knee_angle_l	ankle_angle_l	subtalar_angle_l	mtp_angle_l	lumbar_extension	lumbar_bending	lumbar_rotation
      4.80000000	      7.98068245	      1.07813975	      5.30913382	      0.78432203	      0.75286254	     -0.17138883	     -2.79677145	      4.06110377	      4.40068345	    -10.06185701	     14.82471636	    -16.82442350	      0.00000000	     17.34847225	      0.98288535	     -4.45722662	    -60.99448161	      0.37073139	    -24.55488954	      0.00000000	    -25.23095761	     -0.22014839	     -3.35892630
      4.81000000	      7.80974587	      1.25359899	      4.62410294	      0.79441150	      0.75315004	     -0.17102505	     -3.64300398	      3.83929611	      4.78993727	     -9.70526402	     15.46024283	    -16.43053241	      0.00000000	     18.24648872	      1.16986567	     -5.09281444	    -58.17538878	      1.36822103	    -24.31480939	      0.00000000	    -25.29252901	     -0.68575247	     -2.81397308
      4.82000000	      7.61781208	      1.31977780	      3.87338913	      0.80451997	      0.75312707	     -0.17062617	     -4.41240760	      3.71763995	      5.29441833	     -9.41930333	     16.07166669	    -16.16621969	      0.00000000	     18.99166250	      1.17684356	     -5.81741567	    -54.98384327	      1.98999568	    -24.68190283	      0.00000000	    -25.31507037	     -1.06057692	     -2.18466697
      4.83000000	      7.58562175	      1.39610357	      3.12370246	      0.81471409	      0.75309143	     -0.17031787	     -5.35861805	      3.56224928	      5.70283036	     -9.13211695	     16.69528492	    -15.73229771	      0.00000000	     19.31205249	      1.19376070	     -6.52220436	    -51.31590257	      2.18869866	    -25.65496830	      0.00000000	    -25.51630253	     -1.43101910	     -1.61359009
      4.84000000	      7.47292479	      1.35510310	      2.33952170	      0.82497283	      0.75270564	     -0.17005035	     -6.14310337	      3.50466872	      6.14942922	     -8.97096681	     17.38324537	    -15.31072387	      0.00000000	     19.53167476	      1.08146118	     -7.21691778	    -47.29417068	      1.99869353	    -27.08949450	      0.00000000	    -25.59610061	     -1.68455029	     -0.93988983
      4.85000000	      7.38463940	      1.25413312	      1.55537349	      0.83537098	      0.75212894	     -0.16983093	     -6.95093916	      3.49446573	      6.64698377	     -8.83659426	     18.02608586	    -14.95639177	      0.00000000	     19.50953042	      0.88405884	     -7.94074245	    -42.91074239	      1.75511024	    -28.43785642	      0.00000000	    -25.66777492	     -1.87430485	     -0.34074230
      4.86000000	      7.27358167	      1.06574200	      0.78513599	      0.84589022	      0.75130216	     -0.16969023	     -7.72037987	      3.56048035	      7.18188108	     -8.75066852	     18.66565909	    -14.68039807	      0.00000000	     19.32503420	      0.60238111	     -8.64303800	    -38.23399926	      1.59555797	    -29.33249844	      0.00000000	    -25.68446692	     -1.96100433	      0.27272390
      4.87000000	      7.12379523	      0.79231711	      0.05361064	      0.85658191	      0.75022393	     -0.16963541	     -8.47835590	      3.70281113	      7.73269732	     -8.64599297	     19.27867440	    -14.43341263	      0.00000000	     19.00861070	      0.25287270	     -9.30442398	    -33.31437745	      1.57314353	    -29.52654426	      0.00000000	    -25.60734602	     -1.94300668	      0.83255183
      4.88000000	      6.94186034	      0.43468814	     -0.64547173	      0.86740030	      0.74889469	     -0.16966089	     -9.17823956	      3.92765825	      8.28352651	     -8.62554909	     19.90937467	    -14.23336067	      0.00000000	     18.56837312	     -0.12457147	     -9.79207327	    -28.19283263	      1.60113451	    -29.08722754	      0.00000000	    -25.46322578	     -1.81908148	      1.35678804
      4.89000000	      6.87716281	      0.03156998	     -1.25042455	      0.87843172	      0.74750664	     -0.16987810	    -10.09925696	      4.16994904	      8.64734209	     -8.47368448	     20.50115500	    -13.97292844	      0.00000000	     17.84786433	     -0.45873406	     -9.98604748	    -22.91381137	      1.78465602	    -27.79963982	      0.00000000	    -25.42132899	     -1.59744122	      1.81756212
      4.90000000	      6.75926044	     -0.48574494	     -1.80369669	      0.88962689	      0.74582216	     -0.17013218	    -10.95017032	      4.53072746	      8.94194163	     -8.40067115	     21.20427557	    -13.57507349	      0.00000000	     17.16111833	     -0.92357475	    -10.09340604	    -17.76015263	      2.51876300	    -25.12460346	      0.00000000	    -25.27640172	     -1.24740824	      2.21377422
      4.91000000	      6.68084451	     -1.04787314	     -2.31229903	      0.90103558	      0.74398911	     -0.17048332	    -11.91899123	      4.91062839	      9.21341698	     -8.24843893	     21.81683611	    -13.18860856	      0.00000000	     16.34033605	     -1.38326698	     -9.67035421	    -12.67303498	      2.91555169	    -22.34373333	      0.00000000	    -25.13649430	     -0.83629906	      2.61743295
      4.92000000	      6.67961393	     -1.68868804	     -2.74617759	      0.91262914	      0.74202498	     -0.17094219	    -13.03861363	      5.35614884	      9.54120380	     -8.03945625	     22.33734123	    -12.91968120	      0.00000000	     15.35479968	     -1.90468167	     -8.26984444	     -7.77161014	      2.83861672	    -20.15449561	      0.00000000	    -25.06113062	     -0.32175612	      2.97307369
      4.93000000	      6.68205767	     -2.36433567	     -3.13332354	      0.92440486	      0.73989776	     -0.17141806	    -14.18017333	      5.82388583	      9.86569232	     -7.85837800	     22.86051185	    -12.61428531	      0.00000000	     14.43441704	     -2.59232281	     -6.39689833	     -3.40904304	      2.90532243	    -17.88476188	      0.00000000	    -24.95219038	      0.22246972	      3.30670447
      4.94000000	      6.70107359	     -3.01585636	     -3.48569480	      0.93631686	      0.73771186	     -0.17191601	    -15.33542026	      6.24959267	     10.23807421	     -7.73196769	     23.33964335	    -12.28261346	      0.00000000	     13.61695852	     -3.40673942	     -4.20285116	      0.29183217	      3.08597117	    -15.82756604	      0.00000000	    -24.84850737	      0.73660019	      3.60973165
      4.95000000	      6.72730837	     -3.57369723	     -3.81393902	      0.94833793	      0.73554745	     -0.17243375	    -16.46367229	      6.56348394	     10.64669651	     -7.69813768	     23.78160121	    -11.96573001	      0.00000000	     12.98063483	     -4.25006745	     -1.97546235	      3.19786859	      3.39972338	    -14.05718229	      0.00000000	    -24.73583167	      1.13368658	      3.88729242
      4.96000000	      6.71543302	     -4.00615168	     -4.12562634	      0.96043056	      0.73343679	     -0.17301229	    -17.47303689	      6.74231570	     11.10978996	     -7.81602892	     24.23094399	    -11.71357332	      0.00000000	     12.61269111	     -5.01577917	      0.03983893	      5.23068160	      3.83538214	    -12.60526867	      0.00000000	    -24.56627576	      1.39470222	      4.13157854
